<?xml version="1.0" standalone="no"?>
<!DOCTYPE svg PUBLIC "-//W3C//DTD SVG 20010904//EN"
 "http://www.w3.org/TR/2001/REC-SVG-20010904/DTD/svg10.dtd">
<svg version="1.0" xmlns="http://www.w3.org/2000/svg"
 width="1080.000000pt" height="1080.000000pt" viewBox="0 0 1080.000000 1080.000000"
 preserveAspectRatio="xMidYMid meet">
<metadata>
Created by potrace 1.14, written by Peter Selinger 2001-2017
</metadata>
<g transform="translate(0.000000,1080.000000) scale(0.100000,-0.100000)"
fill="#000000" stroke="none">
<path d="M7325 9570 c-203 -192 -221 -207 -240 -194 -11 7 -40 20 -65 29 -25
9 -54 21 -65 25 -11 5 -54 20 -95 35 -41 15 -97 35 -125 46 -27 10 -68 23 -90
28 -22 6 -56 14 -75 20 -57 16 -270 67 -335 80 -33 7 -78 17 -100 22 -22 4
-105 15 -185 24 -80 8 -184 20 -231 25 -114 13 -525 13 -647 -1 -372 -40 -401
-44 -594 -89 -24 -5 -74 -17 -113 -25 -38 -9 -81 -20 -95 -25 -14 -4 -52 -16
-85 -25 -86 -24 -259 -82 -340 -114 -180 -71 -394 -172 -545 -258 -19 -11 -57
-32 -85 -47 -86 -47 -365 -237 -475 -322 -263 -204 -541 -483 -753 -755 -67
-86 -307 -439 -307 -452 0 -3 -16 -34 -36 -69 -48 -83 -174 -331 -198 -388
-11 -25 -26 -61 -34 -80 -14 -33 -24 -58 -43 -105 -32 -81 -90 -254 -114 -340
-9 -33 -21 -71 -25 -85 -5 -14 -16 -56 -25 -95 -8 -38 -20 -88 -25 -110 -9
-41 -20 -96 -40 -195 -36 -185 -55 -441 -55 -730 0 -251 7 -368 35 -595 14
-114 43 -261 91 -465 6 -25 15 -56 19 -70 4 -14 15 -52 25 -85 22 -80 85 -267
115 -340 4 -11 25 -63 46 -115 36 -90 157 -337 219 -445 15 -27 37 -65 47 -83
101 -181 313 -475 462 -642 293 -327 594 -586 944 -808 62 -40 115 -72 117
-72 3 0 22 -11 43 -23 20 -13 58 -35 84 -49 l46 -25 -121 -185 c-106 -162
-184 -290 -195 -319 -10 -27 31 1 126 84 199 173 347 302 362 314 12 9 23 7
50 -6 19 -9 89 -38 155 -65 66 -27 129 -52 140 -56 11 -5 43 -16 70 -25 28
-10 59 -21 70 -26 20 -9 202 -64 265 -80 39 -10 68 -17 215 -48 55 -11 120
-25 145 -30 42 -9 178 -26 402 -51 125 -13 551 -13 676 0 224 25 360 42 402
51 25 5 90 19 145 30 194 41 187 40 335 82 47 14 119 37 160 52 41 15 86 30
100 35 70 21 301 121 423 182 472 237 829 496 1188 864 131 134 253 270 304
339 16 22 32 42 35 45 3 3 33 44 67 91 381 539 619 1083 743 1702 6 26 14 68
20 95 10 47 30 210 49 400 14 133 14 551 0 684 -19 186 -39 352 -49 398 -5 25
-13 68 -19 95 -41 201 -97 409 -146 545 -15 41 -30 86 -35 100 -41 132 -194
460 -309 663 -81 143 -293 464 -321 487 -3 3 -19 23 -36 45 -16 22 -41 53 -55
70 -278 320 -545 570 -819 765 -79 57 -317 210 -325 210 -3 0 -22 11 -43 23
-83 53 -213 118 -222 112 -15 -9 -14 -7 53 136 144 303 168 359 165 373 -2 9
-87 -65 -223 -194z"/>
</g>
</svg>
